<?xml version="1.0" standalone="no"?>
<!DOCTYPE svg PUBLIC "-//W3C//DTD SVG 1.1//EN" "http://www.w3.org/Graphics/SVG/1.1/DTD/svg11.dtd">
<svg xmlns="http://www.w3.org/2000/svg">
<defs >
<font id="DMMono" horiz-adv-x="600" ><font-face
    font-family="DM Mono Medium"
    units-per-em="1000"
    panose-1="2 11 6 9 4 2 1 11 1 3"
    ascent="992"
    descent="-310"
    alphabetic="0" />
<glyph unicode=" " glyph-name="space" />
<glyph unicode="!" glyph-name="exclam" d="M244 255L307 700H438L343 255H244ZM271 -6Q234 -6 208 18T182 78Q182 113 208 137T271 161Q309 161 334 137T360 78Q360 43 335 19T271 -6Z" />
<glyph unicode="&quot;" glyph-name="quotedbl" d="M406 379L462 700H580L524 379H406ZM378 379L434 700H552L496 379H378Z" />
<glyph unicode="#" glyph-name="numbersign" d="M86 0L119 186H21L38 278H135L160 422H63L79 514H176L209 700H308L275 514H419L452 700H551L518 514H616L599 422H502L476 278H574L558 186H460L427 0H329L362 186H218L185 0H86ZM234 278H378L403 422H259L234 278Z" />
<glyph unicode="$" glyph-name="dollar" d="M205 -87L219 -8Q118 8 75 69T34 215H145Q141 169 164 135T236 88L277 324Q192 353 152 398T111 516Q111 573 141 615T224 683T345 711L359 791H429L415 709Q500 698 545 647T587 513H475Q477 549 456 575T398 612L361
402Q367 399 375 397Q424 381 462 356T522 295T545 206Q545 138 512 90T421 15T288 -12L275 -87H205ZM223 522Q223 491 239 469T295 428L328 615Q280 609 252 585T223 522ZM431 195Q431 226 414 251T343 300L305 84Q364 89 397 118T431 195Z" />
<glyph unicode="%" glyph-name="percent" d="M200 402Q142 402 105 440T68 539Q68 589 90 628T151 689T241 712Q298 712 335 675T372 576Q372 526 351 487T290 425T200 402ZM207 472Q248 472 271 502T294 571Q294 601 278 621T232 642Q195 642 171 615T146 544Q146
513 162 493T207 472ZM40 65L-7 124L596 635L643 576L40 65ZM397 -12Q339 -12 302 26T265 125Q265 175 287 214T348 275T438 298Q496 298 532 261T569 162Q569 112 548 73T487 11T397 -12ZM404 58Q446 58 469 88T492 157Q492 187 475 207T430 228Q393 228 368 201T343
130Q343 99 359 79T404 58Z" />
<glyph unicode="&amp;" glyph-name="ampersand" d="M208 -11Q153 -11 109 13T40 80T15 176Q15 259 58 316T178 408Q150 469 150 518Q150 604 206 658T358 712Q410 712 449 692T508 635T522 546H420Q422 581 400 601T345 621Q301 621 278 593T254 523Q254 473 294
409L403 234L484 363H597L468 160Q463 152 458 145L548 0H432L394 61Q360 25 317 7T208 -11ZM123 190Q123 144 150 114T223 84Q261 84 287 98T341 145L222 332Q177 309 150 274T123 190Z" />
<glyph unicode="&apos;" glyph-name="quotesingle" d="M264 379L320 700H438L382 379H264Z" />
<glyph unicode="(" glyph-name="parenleft" d="M261 -185Q233 -139 206 -80T161 52T143 207Q143 329 178 442T278 650T430 811H544L542 798Q407 681 330 536T252 217Q252 105 287 8T370 -172L368 -185H261Z" />
<glyph unicode=")" glyph-name="parenright" d="M72 -185L74 -172Q208 -54 286 92T364 409Q364 523 330 620T246 798L248 811H355Q383 766 410 707T455 575T473 419Q473 297 437 184T336 -25T189 -185H72Z" />
<glyph unicode="*" glyph-name="asterisk" d="M220 101L282 304L109 187L64 270L262 351L94 432L151 512L298 396L308 599H415L353 396L527 513L571 431L373 349L541 268L484 188L337 304L327 101H220Z" />
<glyph unicode="+" glyph-name="plus" d="M230 118L262 302H77L94 398H279L311 582H406L374 398H559L542 302H357L325 118H230Z" />
<glyph unicode="," glyph-name="comma" d="M82 -125L220 155H363L192 -125H82Z" />
<glyph unicode="-" glyph-name="hyphen" d="M137 305L154 395H499L482 305H137Z" />
<glyph unicode="." glyph-name="period" d="M270 -6Q233 -6 207 18T181 78Q181 113 207 137T270 161Q308 161 333 137T359 78Q359 43 334 19T270 -6Z" />
<glyph unicode="/" glyph-name="slash" d="M61 -90L457 760H569L172 -90H61Z" />
<glyph unicode="0" glyph-name="zero" d="M261 -12Q156 -12 99 65T41 278Q41 358 63 435T127 575T232 675T375 712Q480 712 537 635T595 422Q595 341 573 264T509 125T404 25T261 -12ZM151 289Q151 224 167 177L412 601Q391 613 365 613Q317 613 278 584T210 508T166
403T151 289ZM271 86Q319 86 358 115T426 192T470 297T485 411Q485 476 469 523L223 98Q245 86 271 86Z" />
<glyph unicode="1" glyph-name="one" d="M22 0L39 95H212L295 571L126 541L142 631L360 700H425L318 95H504L487 0H22Z" />
<glyph unicode="2" glyph-name="two" d="M26 0L41 84Q161 163 256 235T407 374T462 505Q462 557 433 586T353 616Q295 616 260 579T216 486H113Q130 594 192 653T366 712Q465 712 518 658T572 516Q572 448 541 389T456 278T339 180T210 91H515L499 0H26Z" />
<glyph unicode="3" glyph-name="three" d="M273 -12Q201 -12 148 16T68 96T49 213H155Q148 158 182 122T278 86Q352 86 395 120T438 215Q438 271 399 298T300 326H240L257 420H312Q379 420 420 448T462 530Q462 568 436 591T361 614Q308 614 273 586T229 511H124Q139
603 203 657T370 712Q437 712 481 689T548 627T570 541Q570 473 533 435T443 379L442 373Q484 356 514 320T544 224Q544 117 474 53T273 -12Z" />
<glyph unicode="4" glyph-name="four" d="M334 0L361 151H29L44 234L432 700H564L483 247H575L558 151H467L440 0H334ZM168 247H384L443 581L168 247Z" />
<glyph unicode="5" glyph-name="five" d="M293 -12Q221 -12 169 15T90 89T61 195H169Q171 149 206 118T297 86Q378 86 421 135T465 260Q465 318 430 352T339 387Q289 387 252 364T191 306H89L212 700H600L583 602H285L220 423H227Q250 448 285 463T370 479Q431
479 475 453T544 379T569 270Q569 191 538 127T445 26T293 -12Z" />
<glyph unicode="6" glyph-name="six" d="M290 -12Q206 -12 153 24T76 123T51 268Q51 351 74 430T142 573T250 674T394 712Q493 712 543 658T595 515H496Q493 562 461 589T379 616Q331 616 287 586T210 499T159 358H166Q191 396 237 423T350 450Q405 450 450 425T521
354T548 247Q548 172 514 114T421 22T290 -12ZM284 84Q330 84 365 104T420 159T441 237Q441 289 409 322T321 355Q251 355 209 312T166 206Q166 154 199 119T284 84Z" />
<glyph unicode="7" glyph-name="seven" d="M116 0L481 604H121L139 700H614L600 618L232 0H116Z" />
<glyph unicode="8" glyph-name="eight" d="M269 -12Q198 -12 148 14T72 85T46 186Q46 254 88 303T194 373L196 379Q167 398 145 431T122 508Q122 571 153 616T239 687T369 712Q434 712 479 689T549 627T573 541Q573 483 540 438T455 373L453 366Q485 350 509 314T534
221Q534 153 501 101T408 18T269 -12ZM334 411Q394 411 432 443T470 526Q470 567 440 593T360 619Q300 619 263 588T226 506Q226 465 255 438T334 411ZM274 84Q344 84 386 120T429 218Q429 267 397 295T311 324Q241 324 197 289T152 192Q152 143 186 114T274 84Z"
/>
<glyph unicode="9" glyph-name="nine" d="M255 -12Q156 -12 102 42T45 185H147Q152 141 181 113T263 84Q337 84 397 150T481 342H474Q450 304 408 277T295 250Q239 250 193 275T120 347T92 455Q92 531 127 589T221 679T352 712Q437 712 489 676T565 577T589 432Q589
349 568 270T504 127T399 26T255 -12ZM319 345Q390 345 432 388T474 494Q474 547 441 581T354 616Q284 616 242 573T199 464Q199 412 231 379T319 345Z" />
<glyph unicode=":" glyph-name="colon" d="M270 -6Q233 -6 207 18T181 78Q181 113 207 137T270 161Q308 161 333 137T359 78Q359 43 334 19T270 -6ZM338 382Q301 382 275 406T249 466Q249 501 275 525T338 549Q376 549 401 525T427 466Q427 431 402 407T338 382Z" />
<glyph unicode=";" glyph-name="semicolon" d="M82 -125L220 155H363L192 -125H82ZM338 382Q301 382 275 406T249 466Q249 501 275 525T338 549Q376 549 401 525T427 466Q427 431 402 407T338 382Z" />
<glyph unicode="&lt;" glyph-name="less" d="M334 77L112 349L417 622H568L258 346L257 339L469 77H334Z" />
<glyph unicode="=" glyph-name="equal" d="M99 428L116 523H581L564 428H99ZM55 177L72 272H537L520 177H55Z" />
<glyph unicode="&gt;" glyph-name="greater" d="M68 77L378 353L379 360L167 622H304L524 351L219 77H68Z" />
<glyph unicode="?" glyph-name="question" d="M201 220L222 374H261Q348 374 402 407T456 513Q456 559 426 588T345 617Q290 617 255 589T208 508H108Q117 567 146 613T228 685T357 712Q420 712 466 688T536 622T561 524Q561 454 527 405T436 328T309 298L291
220H201ZM226 -6Q189 -6 163 18T137 78Q137 113 163 137T226 161Q264 161 289 137T315 78Q315 43 290 19T226 -6Z" />
<glyph unicode="@" glyph-name="at" d="M321 -94Q236 -94 173 -54T74 61T39 242Q39 328 62 409T131 556T244 661T402 700Q471 700 520 673T592 599T604 491L536 107H460V153H456Q440 128 415 113T347 98Q285 98 244 146T202 274Q202 338 225 391T293 476T406 508Q443
508 470 493T510 451L517 493Q527 547 491 583T390 619Q332 619 285 589T203 506T151 387T132 250Q132 174 154 115T222 21T336 -13H470L456 -94H321ZM371 173Q408 173 434 194T473 252T487 333Q487 380 465 406T408 433Q353 433 322 389T290 279Q290 228 313 201T371
173Z" />
<glyph unicode="A" glyph-name="A" d="M-16 0L315 700H443L528 0H417L399 168H181L105 0H-16ZM354 550L220 253H390L359 550H354Z" />
<glyph unicode="B" glyph-name="B" d="M12 0L136 700H378Q474 700 523 655T572 535Q572 471 536 427T443 363L442 356Q481 340 508 304T536 211Q536 112 465 56T270 0H12ZM190 408H321Q389 408 424 436T460 519Q460 606 348 606H225L190 408ZM135 98H274Q345 98
387 128T430 216Q429 265 398 291T310 318H174L135 98Z" />
<glyph unicode="C" glyph-name="C" d="M267 -12Q155 -12 97 66T38 278Q38 360 60 437T126 577T235 675T384 712Q496 712 551 650T602 484H485Q486 539 457 575T365 612Q315 612 275 585T207 511T163 408T147 292Q147 195 181 142T282 88Q341 88 380 121T437 210H554Q524
105 453 47T267 -12Z" />
<glyph unicode="D" glyph-name="D" d="M13 0L137 700H297Q388 700 451 663T548 557T581 394Q581 282 537 193T405 52T184 0H13ZM137 98H195Q287 98 348 135T441 236T472 383Q472 485 426 543T280 602H226L137 98Z" />
<glyph unicode="E" glyph-name="E" d="M36 0L160 700H607L590 605H249L213 401H525L508 307H197L159 95H500L483 0H36Z" />
<glyph unicode="F" glyph-name="F" d="M40 0L164 700H613L595 601H252L214 387H502L486 294H198L146 0H40Z" />
<glyph unicode="G" glyph-name="G" d="M252 -12Q155 -12 99 65T42 279Q42 360 63 437T127 577T233 675T381 712Q482 712 535 654T593 494H477Q476 548 446 580T364 612Q311 612 271 584T205 508T165 403T151 287Q151 191 182 140T273 88Q325 88 362 117T423 193T459
288H312L327 376H581L515 0H422L426 83H421Q400 41 358 15T252 -12Z" />
<glyph unicode="H" glyph-name="H" d="M-3 0L121 700H227L176 410H482L533 700H639L515 0H409L464 313H158L103 0H-3Z" />
<glyph unicode="I" glyph-name="I" d="M51 0L67 94H220L310 606H160L177 700H583L566 606H416L326 94H478L461 0H51Z" />
<glyph unicode="J" glyph-name="J" d="M267 -12Q198 -12 154 18T91 101T80 215H186Q178 160 199 122T279 84Q338 84 370 121T412 213L498 700H604L518 213Q498 98 436 43T267 -12Z" />
<glyph unicode="K" glyph-name="K" d="M32 0L156 700H262L206 382L503 700H641L305 347L304 340L523 0H398L194 315L138 0H32Z" />
<glyph unicode="L" glyph-name="L" d="M37 0L161 700H267L160 95H505L488 0H37Z" />
<glyph unicode="M" glyph-name="M" d="M-1 0L123 700H230L320 383L520 700H637L513 0H412L500 497L343 248H259L188 498L100 0H-1Z" />
<glyph unicode="N" glyph-name="N" d="M7 0L131 700H235L435 179L528 700H629L505 0H401L201 521L108 0H7Z" />
<glyph unicode="O" glyph-name="O" d="M262 -12Q153 -12 95 62T36 268Q36 354 58 434T124 576T231 675T374 712Q483 712 541 638T599 432Q599 345 577 266T511 124T405 25T262 -12ZM272 87Q325 87 366 116T434 193T476 299T490 414Q490 511 458 561T364 612Q311
612 270 583T201 506T159 400T145 285Q145 189 178 138T272 87Z" />
<glyph unicode="P" glyph-name="P" d="M27 0L151 700H378Q482 700 535 645T589 505Q589 394 516 334T313 274H181L133 0H27ZM198 369H324Q397 369 438 403T479 501Q479 549 452 577T365 605H240L198 369Z" />
<glyph unicode="Q" glyph-name="Q" d="M262 -12Q153 -12 95 62T36 268Q36 354 58 434T124 576T231 675T374 712Q483 712 541 638T599 432Q599 342 575 259T503 113T389 17L513 -153H386L281 -11Q272 -12 262 -12ZM272 87Q325 87 366 116T434 193T476 299T490 414Q490
511 458 561T364 612Q311 612 270 583T201 506T159 400T145 285Q145 189 178 138T272 87Z" />
<glyph unicode="R" glyph-name="R" d="M31 0L155 700H380Q486 700 539 647T593 508Q593 421 545 366T413 289L509 0H393L306 277H186L137 0H31ZM203 373H320Q396 373 439 407T483 502Q483 550 453 577T358 605H244L203 373Z" />
<glyph unicode="S" glyph-name="S" d="M281 -12Q198 -12 147 17T72 97T51 211H163Q156 156 187 120T280 83Q343 83 381 112T419 195Q419 221 408 242T367 283T277 324Q121 381 121 519Q121 580 152 623T239 689T368 712Q469 712 524 659T575 514H463Q466 559 436
588T355 617Q301 617 268 591T234 524Q234 480 265 453T374 397Q420 381 456 357T513 296T534 208Q534 138 502 89T413 14T281 -12Z" />
<glyph unicode="T" glyph-name="T" d="M203 0L310 605H122L139 700H621L604 605H416L309 0H203Z" />
<glyph unicode="U" glyph-name="U" d="M261 -12Q191 -12 139 21T63 115T53 256L132 700H238L158 250Q145 170 176 127T271 83Q339 83 383 124T442 250L522 700H628L548 251Q523 109 447 49T261 -12Z" />
<glyph unicode="V" glyph-name="V" d="M193 0L101 700H213L277 139L539 700H659L322 0H193Z" />
<glyph unicode="W" glyph-name="W" d="M55 0L81 700H183L152 192L327 700H429L428 189L576 700H679L462 0H336L346 495L177 0H55Z" />
<glyph unicode="X" glyph-name="X" d="M-13 0L257 356L109 700H228L335 449L522 700H649L378 348L527 0H410L301 254L115 0H-13Z" />
<glyph unicode="Y" glyph-name="Y" d="M203 0L251 266L96 700H211L319 384L537 700H664L357 266L309 0H203Z" />
<glyph unicode="Z" glyph-name="Z" d="M18 0L34 87L467 605H130L147 700H615L599 613L166 95H512L495 0H18Z" />
<glyph unicode="[" glyph-name="bracketleft" d="M204 -185Q152 -185 125 -153T107 -63L242 697Q253 758 284 784T376 811H533L517 718H377Q345 718 339 686L208 -58Q202 -90 234 -90H374L357 -185H204Z" />
<glyph unicode="\" glyph-name="backslash" d="M428 -90L96 760H203L534 -90H428Z" />
<glyph unicode="]" glyph-name="bracketright" d="M90 -185L106 -92H246Q278 -92 284 -60L415 684Q421 716 389 716H249L266 811H419Q471 811 498 779T516 689L381 -71Q371 -132 340 -158T247 -185H90Z" />
<glyph unicode="^" glyph-name="asciicircum" d="M59 362L325 700H431L581 362H478L368 606H363L175 362H59Z" />
<glyph unicode="_" glyph-name="underscore" d="M7 -95L24 0H489L471 -95H7Z" />
<glyph unicode="`" glyph-name="grave" d="M460 534L260 643L277 737L475 618L460 534Z" />
<glyph unicode="a" glyph-name="a" d="M222 -12Q169 -12 126 14T58 91T32 216Q32 273 49 325T100 418T184 484T300 508Q356 508 390 486T438 432L449 496H556L490 127Q484 92 519 92H561L544 0H451Q418 0 401 18T383 65V75H377Q356 35 319 12T222 -12ZM256 89Q308
89 343 116T395 186T413 279Q413 341 383 374T303 407Q252 407 216 382T161 315T142 226Q142 161 174 125T256 89Z" />
<glyph unicode="b" glyph-name="b" d="M289 -12Q232 -12 198 12T146 76H140L119 0H27L154 720H260L211 442Q233 469 272 488T365 508Q418 508 459 481T525 404T550 284Q550 204 519 137T429 29T289 -12ZM279 89Q332 89 368 115T422 184T440 277Q440 340 411 373T331
407Q279 407 243 381T188 312T169 220Q169 155 200 122T279 89Z" />
<glyph unicode="c" glyph-name="c" d="M282 -12Q216 -12 167 16T90 96T63 218Q63 302 98 367T197 470T343 508Q438 508 491 460T550 330H439Q435 366 407 387T332 408Q284 408 248 383T192 317T171 225Q171 158 204 123T285 87Q332 87 362 108T409 166H521Q467
-12 282 -12Z" />
<glyph unicode="d" glyph-name="d" d="M222 -12Q169 -12 126 14T58 91T32 216Q32 273 49 325T100 418T184 484T300 508Q356 508 390 486T438 432L489 720H595L490 127Q484 92 519 92H561L544 0H451Q418 0 401 18T383 65V75H377Q356 35 319 12T222 -12ZM256 89Q308
89 343 116T395 186T413 279Q413 341 383 374T303 407Q252 407 216 382T161 315T142 226Q142 161 174 125T256 89Z" />
<glyph unicode="e" glyph-name="e" d="M274 -12Q208 -12 159 16T83 97T56 221Q56 300 91 365T191 469T343 508Q409 508 454 483T524 413T548 313Q548 291 544 268T534 223H160Q161 156 195 120T282 83Q328 83 358 102T404 156H511Q482 80 427 34T274 -12ZM330
416Q269 416 230 385T173 304H444V314Q444 363 414 389T330 416Z" />
<glyph unicode="f" glyph-name="f" d="M-14 -220L3 -127H84Q119 -127 136 -113T160 -64L243 406H118L133 496H259L271 565Q286 648 330 684T457 720H578L561 627H453Q418 627 401 613T377 564L365 496H538L522 406H349L266 -65Q251 -148 211 -184T80 -220H-14Z" />
<glyph unicode="g" glyph-name="g" d="M296 143Q248 143 210 160L177 128Q165 116 165 104Q165 86 190 86H321Q400 86 446 52T492 -47Q492 -133 423 -182T233 -232Q132 -232 74 -194T16 -89Q16 -50 34 -22T84 26Q60 49 60 85Q60 126 95 158L150 208Q120 248 120
302Q120 362 148 408T228 481T349 508Q388 508 420 496H615L603 426L514 421L512 407Q522 380 522 350Q522 290 495 244T417 170T296 143ZM306 228Q359 228 392 261T426 342Q426 377 401 399T335 422Q283 422 251 391T218 312Q218 272 242 250T306 228ZM119 -71Q119
-107 152 -125T241 -144Q307 -144 348 -121T389 -56Q389 -28 366 -12T287 5H168Q119 -28 119 -71Z" />
<glyph unicode="h" glyph-name="h" d="M33 0L159 720H265L215 432Q237 464 278 486T374 508Q467 508 512 448T540 283L491 0H385L434 278Q445 338 419 373T337 408Q282 408 240 371T186 264L139 0H33Z" />
<glyph unicode="i" glyph-name="i" d="M363 572Q328 572 304 594T280 650Q280 683 304 705T363 727Q398 727 421 705T445 650Q445 617 422 595T363 572ZM321 0Q268 0 242 33T226 123L270 371Q276 404 244 404H124L140 496H279Q343 496 365 466T376 372L332 125Q327
92 359 92H500L484 0H321Z" />
<glyph unicode="j" glyph-name="j" d="M421 572Q386 572 362 594T338 650Q338 683 362 705T421 727Q456 727 479 705T503 650Q503 617 480 595T421 572ZM-23 -220L-6 -128H208Q240 -128 246 -95L328 371Q334 404 301 404H165L181 496H333Q398 496 421 466T434
373L351 -97Q340 -163 306 -191T207 -220H-23Z" />
<glyph unicode="k" glyph-name="k" d="M48 0L174 720H280L205 293L425 496H563L316 270L315 263L504 0H381L199 255L154 0H48Z" />
<glyph unicode="l" glyph-name="l" d="M321 0Q268 0 242 33T226 123L310 595Q316 628 284 628H164L180 720H319Q383 720 405 690T416 596L332 125Q327 92 359 92H500L484 0H321Z" />
<glyph unicode="m" glyph-name="m" d="M12 0L77 371Q83 404 49 404H34L51 496H123Q152 496 168 481T184 441V440H189Q204 472 230 490T296 508Q333 508 358 490T390 439H394Q406 469 434 488T503 508Q558 508 585 469T602 371L536 0H436L497 350Q503 379 492 397T455
415Q428 415 409 394T384 335L324 0H224L285 350Q291 379 280 397T243 415Q216 415 197 394T172 335L112 0H12Z" />
<glyph unicode="n" glyph-name="n" d="M52 0L117 369Q123 404 89 404H47L63 496H153Q190 496 208 478T227 431V426H233Q257 464 297 486T394 508Q456 508 494 479T547 399T550 285L500 0H394L443 278Q454 337 430 373T350 410Q295 410 256 372T204 264L158 0H52Z" />
<glyph unicode="o" glyph-name="o" d="M272 -12Q203 -12 153 17T75 98T48 219Q48 298 82 363T180 468T330 508Q398 508 447 479T524 398T552 277Q552 199 518 133T421 28T272 -12ZM277 89Q329 89 366 113T424 177T444 268Q444 336 410 371T323 407Q271 407 234
383T176 319T156 228Q156 158 190 124T277 89Z" />
<glyph unicode="p" glyph-name="p" d="M-3 -220L100 369Q106 404 72 404H30L47 496H138Q172 496 189 477T207 431V425H213Q234 462 272 485T369 508Q451 508 504 449T558 277Q558 221 542 169T492 76T411 12T297 -12Q241 -12 204 12T153 66L103 -220H-3ZM291 89Q342
89 377 115T430 183T448 272Q448 338 416 372T335 407Q283 407 248 381T196 312T178 220Q178 156 211 123T291 89Z" />
<glyph unicode="q" glyph-name="q" d="M449 -220Q399 -220 374 -189T359 -100L387 57Q366 29 330 9T234 -12Q182 -12 140 14T72 90T47 213Q47 296 79 362T170 468T308 508Q364 508 398 485T451 422H457L478 496H570L466 -93Q463 -108 470 -118T494 -128H531L514
-220H449ZM270 89Q321 89 356 115T410 184T428 276Q428 341 397 374T317 407Q264 407 228 381T174 312T156 220Q156 156 188 123T270 89Z" />
<glyph unicode="r" glyph-name="r" d="M153 0L219 371Q225 404 192 404H104L120 496H257Q297 496 313 476T328 418V415H333Q355 465 395 486T499 508H580L560 396H442Q390 396 355 365T309 277L259 0H153Z" />
<glyph unicode="s" glyph-name="s" d="M266 -12Q166 -12 116 35T65 156H174Q176 122 200 100T274 77Q321 77 351 95T382 148Q382 180 357 194T275 217Q207 227 163 262T118 359Q118 427 173 467T327 508Q413 508 463 467T511 355H409Q408 384 383 402T319 420Q276
420 249 405T222 360Q222 335 246 320T329 296Q403 286 447 256T492 157Q492 78 431 33T266 -12Z" />
<glyph unicode="t" glyph-name="t" d="M314 0Q241 0 204 41T180 162L223 406H98L114 496H188Q239 496 257 546L286 626H368L345 496H541L525 406H329L286 164Q281 132 295 113T350 94H468L452 0H314Z" />
<glyph unicode="u" glyph-name="u" d="M200 -12Q143 -12 105 16T50 95T46 211L96 496H202L153 218Q143 157 166 123T244 88Q299 88 339 127T393 239L438 496H544L479 127Q472 92 507 92H549L533 0H441Q404 0 386 17T367 64V72H362Q336 32 297 10T200 -12Z" />
<glyph unicode="v" glyph-name="v" d="M192 0L65 496H181L273 110L409 332Q421 352 427 369T438 407L453 496H562L546 407Q539 366 529 340T499 282L321 0H192Z" />
<glyph unicode="w" glyph-name="w" d="M72 0L52 496H151L153 148L285 496H397L409 142L484 333Q495 360 500 380T509 422L522 496H617L604 424Q597 384 590 357T566 294L442 0H332L320 358L185 0H72Z" />
<glyph unicode="x" glyph-name="x" d="M16 0L233 254L161 383Q150 404 127 404H61L78 496H147Q214 496 244 438L308 320L461 496H590L368 243L436 113Q447 92 471 92H543L526 0H449Q415 0 392 14T352 58L290 175L142 0H16Z" />
<glyph unicode="y" glyph-name="y" d="M201 41L67 496H176L283 120L416 318Q431 341 439 361T452 408L468 496H577L565 426Q557 380 543 345T503 270L174 -220H53L229 41H201Z" />
<glyph unicode="z" glyph-name="z" d="M50 0L67 95L385 399H124L142 496H545L528 401L206 97H480L462 0H50Z" />
<glyph unicode="{" glyph-name="braceleft" d="M320 -185Q256 -185 217 -152T177 -54Q177 -4 192 39T223 122T239 198Q239 228 220 247T156 266H111L128 360H172Q243 360 269 396T296 495Q296 526 295 565T294 631Q294 715 341 763T481 811H595L579 718H489Q452
718 428 701T398 642Q393 605 394 562T395 464Q395 397 363 363T281 315L279 310Q307 300 324 277T341 216Q341 174 327 132T297 49T282 -28Q282 -59 302 -75T353 -92H436L419 -185H320Z" />
<glyph unicode="|" glyph-name="bar" d="M156 -270L330 720H436L262 -270H156Z" />
<glyph unicode="}" glyph-name="braceright" d="M28 -185L45 -92H135Q173 -92 196 -75T225 -16Q231 22 230 64T228 162Q228 227 259 264T344 314L345 319Q317 330 301 356T284 419Q284 460 298 500T327 579T341 654Q341 685 322 701T271 718H188L204 811H303Q368
811 407 778T447 680Q447 630 431 586T400 503T384 428Q384 398 404 379T466 360H512L496 266H452Q381 266 354 230T327 131Q327 100 328 61T330 -5Q330 -89 283 -137T142 -185H28Z" />
<glyph unicode="~" glyph-name="asciitilde" d="M399 241Q369 241 346 250T301 272T261 293T221 303Q196 303 179 286T153 240H63Q77 318 119 357T227 397Q257 397 280 388T325 366T365 345T405 335Q430 335 448 352T473 399H563Q549 320 507 281T399 241Z" />
<glyph unicode="&#xa0;" glyph-name="uni00A0" />
<glyph unicode="&#xa1;" glyph-name="exclamdown" d="M331 341Q293 341 268 365T242 424Q242 459 267 483T331 508Q369 508 394 484T420 424Q420 389 395 365T331 341ZM152 -220L250 247H350L283 -220H152Z" />
<glyph unicode="&#xa2;" glyph-name="cent" d="M227 0L244 96Q168 112 124 171T80 320Q80 399 112 462T201 564T335 609L351 700H420L404 607Q478 596 520 550T567 432H456Q449 491 386 506L330 191Q365 197 388 217T426 268H538Q487 96 312 90L296 0H227ZM188
327Q188 275 209 242T262 196L317 507Q259 494 224 444T188 327Z" />
<glyph unicode="&#xa3;" glyph-name="sterling" d="M27 0L39 64Q94 111 124 162T155 276Q155 283 155 289H48L61 366H145Q141 391 138 417T134 470Q134 580 199 646T382 712Q451 712 498 685T569 611T587 501H487Q490 554 459 588T373 622Q312 622 275 583T237
479Q237 448 240 421T249 366H436L423 289H257Q257 284 257 278Q257 220 237 178T176 97V91H515L499 0H27Z" />
<glyph unicode="&#xa4;" glyph-name="currency" d="M152 88L100 140L162 202Q138 244 138 297Q138 350 163 391L100 454L152 506L213 445Q256 472 309 472Q361 472 404 445L465 506L517 454L455 391Q480 349 480 297Q480 245 455 203L517 140L465 88L404 150Q361
122 309 122Q255 122 213 149L152 88ZM309 196Q331 196 353 207T389 241T404 297Q404 331 390 353T354 386T309 398Q272 398 243 373T213 297Q213 247 242 222T309 196Z" />
<glyph unicode="&#xa5;" glyph-name="yen" d="M48 152L62 233H245L251 266L235 310H76L90 391H206L96 700H211L320 379L539 700H664L445 391H561L547 310H388L357 266L351 233H533L519 152H336L309 0H203L230 152H48Z" />
<glyph unicode="&#xa6;" glyph-name="brokenbar" d="M259 312L330 720H436L365 312H259ZM156 -270L228 138H334L262 -270H156Z" />
<glyph unicode="&#xa7;" glyph-name="section" d="M221 -232Q158 -232 109 -208T35 -139T18 -34H130Q126 -77 153 -107T232 -137Q291 -137 325 -110T359 -37Q359 6 326 34T218 88Q173 105 137 128T79 186T57 268Q57 316 82 354T146 417Q121 459 121 507Q121 574
153 619T242 688T371 712Q438 712 487 689T560 622T575 514H463Q468 558 441 587T357 617Q305 617 270 593T234 522Q234 479 264 450T374 394Q445 371 491 330T538 221Q538 168 512 130T447 66Q472 27 472 -17Q472 -117 404 -174T221 -232ZM315 160Q355 146 386
126Q423 159 423 205Q423 249 383 273T261 327Q231 338 205 355Q189 342 179 324T168 282Q168 242 200 215T315 160Z" />
<glyph unicode="&#xa8;" glyph-name="dieresis" d="M462 564Q435 564 418 583T400 627Q400 653 417 671T462 690Q488 690 506 672T524 627Q524 602 506 583T462 564ZM272 564Q246 564 228 583T210 627Q210 653 228 671T272 690Q298 690 316 672T334 627Q334 602
316 583T272 564Z" />
<glyph unicode="&#xa9;" glyph-name="copyright" d="M318 60Q236 60 170 98T66 202T28 350Q28 433 66 498T170 602T318 640Q401 640 466 602T570 499T608 350Q608 268 570 202T467 98T318 60ZM318 105Q388 105 442 137T529 224T561 350Q561 421 529 476T443 563T318
595Q249 595 194 563T107 476T75 350Q75 280 107 225T194 137T318 105ZM317 170Q250 170 204 217T158 350Q158 408 180 448T238 509T317 530Q380 530 416 499T463 416H412Q402 448 379 466T317 484Q274 484 241 452T208 350Q208 281 241 248T317 215Q358 215 382
234T415 284H463Q451 230 414 200T317 170Z" />
<glyph unicode="&#xaa;" glyph-name="ordfeminine" d="M280 290Q216 290 172 336T127 474Q127 534 151 587T223 673T341 706Q385 706 412 689T450 648L459 697H552L500 410Q496 381 525 381H556L542 300H464Q436 300 421 316T406 355V360H402Q386 328 357 309T280
290ZM311 378Q351 378 377 398T416 451T430 521Q430 568 407 593T345 619Q306 619 279 600T238 549T223 482Q223 433 248 406T311 378Z" />
<glyph unicode="&#xab;" glyph-name="guillemotleft" d="M379 94L289 298L439 496H554L404 295L403 289L483 94H379ZM440 94L350 298L500 496H615L465 295L464 289L544 94H440Z" />
<glyph unicode="&#xac;" glyph-name="logicalnot" d="M415 118L447 302H77L94 398H559L510 118H415Z" />
<glyph unicode="&#xad;" glyph-name="uni00AD" d="M137 305L154 395H499L482 305H137Z" />
<glyph unicode="&#xae;" glyph-name="registered" d="M318 60Q236 60 170 98T66 202T28 350Q28 433 66 498T170 602T318 640Q401 640 466 602T570 499T608 350Q608 268 570 202T467 98T318 60ZM318 105Q388 105 442 137T529 224T561 350Q561 421 529 476T443 563T318
595Q249 595 194 563T107 476T75 350Q75 280 107 225T194 137T318 105ZM213 175V525H320Q380 525 409 497T438 424Q438 390 421 365T369 329L448 175H392L319 322H263V175H213ZM263 368H319Q356 368 373 384T390 424Q390 449 374 464T319 479H263V368Z" />
<glyph unicode="&#xaf;" glyph-name="overscore" d="M190 589L204 667H544L530 589H190Z" />
<glyph unicode="&#xb0;" glyph-name="degree" d="M355 407Q314 407 279 425T223 478T202 559Q202 605 223 639T279 693T355 712Q397 712 431 693T486 640T507 559Q507 513 487 479T432 426T355 407ZM355 479Q386 479 409 501T432 560Q432 598 409 619T355 641Q324
641 301 620T278 560Q278 523 301 501T355 479Z" />
<glyph unicode="&#xb1;" glyph-name="plusminus" d="M239 174L262 302H77L94 398H279L302 526H397L374 398H559L542 302H357L334 174H239ZM23 0L40 96H505L488 0H23Z" />
<glyph unicode="&#xb2;" glyph-name="uni00B2" d="M162 280L173 347Q283 417 347 470T412 576Q412 632 361 632Q330 632 315 612T294 567H213Q223 636 264 671T370 707Q435 707 467 673T500 586Q500 538 471 495T397 416T301 350H468L456 280H162Z" />
<glyph unicode="&#xb3;" glyph-name="uni00B3" d="M317 273Q275 273 241 290T189 340T176 413H258Q257 388 275 369T322 350Q357 350 378 366T399 413Q399 440 381 452T331 464H290L303 536H337Q373 536 393 547T414 583Q414 605 401 617T364 630Q337 630 319
616T296 579H214Q224 638 265 672T374 707Q434 707 466 676T498 599Q498 561 478 537T430 503L429 500Q451 490 466 469T481 414Q481 351 440 312T317 273Z" />
<glyph unicode="&#xb4;" glyph-name="acute" d="M241 534L258 629L495 737L477 633L241 534Z" />
<glyph unicode="&#xb5;" glyph-name="uni00B5" d="M-31 -220L96 496H202L153 218Q143 157 166 123T244 88Q299 88 339 127T393 239L438 496H544L479 127Q472 92 507 92H549L533 0H441Q404 0 386 17T367 64V74H362Q336 34 301 11T207 -12Q182 -12 157 -2T119 25L76
-220H-31Z" />
<glyph unicode="&#xb6;" glyph-name="paragraph" d="M239 -100L310 299H302Q205 299 151 349T97 478Q97 580 169 640T373 700H605L463 -100H391L521 634H441L311 -100H239Z" />
<glyph unicode="&#xb7;" glyph-name="middot" d="M289 267Q252 267 226 291T200 351Q200 386 226 410T289 434Q327 434 352 410T378 351Q378 316 353 292T289 267Z" />
<glyph unicode="&#xb8;" glyph-name="cedilla" d="M89 -261L100 -197H210Q237 -197 254 -186T271 -152Q271 -116 223 -116H217Q189 -116 178 -101T171 -62L183 7H252L244 -36Q240 -57 260 -57Q305 -57 329 -80T354 -142Q354 -200 313 -230T208 -261H89Z" />
<glyph unicode="&#xb9;" glyph-name="uni00B9" d="M161 280L174 354H271L314 597L218 582L232 657L369 700H416L355 354H462L449 280H161Z" />
<glyph unicode="&#xba;" glyph-name="ordmasculine" d="M322 290Q237 290 189 342T141 476Q141 538 169 590T248 674T369 706Q451 706 499 655T548 522Q548 460 521 407T443 322T322 290ZM327 377Q386 377 421 417T456 514Q456 565 430 592T362 619Q303 619 269
579T234 483Q234 431 260 404T327 377Z" />
<glyph unicode="&#xbb;" glyph-name="guillemotright" d="M258 94L407 295L409 301L328 496H433L522 292L375 94H258ZM319 94L468 295L470 301L389 496H494L583 292L436 94H319Z" />
<glyph unicode="&#xbc;" glyph-name="onequarter" d="M229 417L240 482H306L329 612L264 605L276 669L379 699H419L381 482H454L443 417H229ZM118 322L128 382H520L509 322H118ZM260 0L269 49H130L140 104L289 281H385L354 109H381L371 49H344L335 0H260ZM226
109H285L302 202L226 109Z" />
<glyph unicode="&#xbd;" glyph-name="onehalf" d="M227 417L238 482H305L328 613L263 605L274 669L378 699H417L379 482H453L441 417H227ZM116 322L127 382H518L508 322H116ZM146 0L156 60Q224 99 269 132T315 193Q315 220 288 220Q272 220 263 210T252 187H180Q187
237 217 261T297 286Q343 286 368 264T394 200Q394 167 376 142T329 98T267 61H375L364 0H146Z" />
<glyph unicode="&#xbe;" glyph-name="threequarters" d="M337 413Q290 413 258 440T231 510H302Q301 496 312 487T343 477Q385 477 385 507Q385 534 343 534H313L323 591H354Q395 591 395 616Q395 639 365 639Q349 639 339 631T326 612H255Q263 656 293 680T371
704Q418 704 441 683T465 632Q465 604 451 590T417 568V566Q434 561 445 547T457 510Q457 470 428 442T337 413ZM117 322L129 382H520L509 322H117ZM260 0L269 49H130L140 104L289 281H385L354 109H381L371 49H344L335 0H260ZM226 109H285L302 202L226 109Z" />
<glyph unicode="&#xbf;" glyph-name="questiondown" d="M360 341Q322 341 297 365T271 424Q271 459 296 483T360 508Q398 508 423 484T449 424Q449 389 424 365T360 341ZM219 -232Q125 -232 70 -181T14 -41Q14 23 45 72T133 150T267 182L287 282H377L353 106H315Q227
106 173 71T119 -32Q119 -81 148 -109T227 -137Q286 -137 320 -107T367 -28H467Q456 -86 427 -132T347 -205T219 -232Z" />
<glyph unicode="&#xc0;" glyph-name="Agrave" d="M-16 0L315 700H443L528 0H417L399 168H181L105 0H-16ZM354 550L220 253H390L359 550H354ZM447 738L247 847L264 941L462 822L447 738Z" />
<glyph unicode="&#xc1;" glyph-name="Aacute" d="M-16 0L315 700H443L528 0H417L399 168H181L105 0H-16ZM354 550L220 253H390L359 550H354ZM323 738L340 833L577 941L559 837L323 738Z" />
<glyph unicode="&#xc2;" glyph-name="Acircumflex" d="M-16 0L315 700H443L528 0H417L399 168H181L105 0H-16ZM354 550L220 253H390L359 550H354ZM246 751L262 839L415 916L544 833L529 751L408 831H403L246 751Z" />
<glyph unicode="&#xc3;" glyph-name="Atilde" d="M-16 0L315 700H443L528 0H417L399 168H181L105 0H-16ZM354 550L220 253H390L359 550H354ZM465 777Q435 777 415 788T377 810T342 821Q323 821 311 810T293 779H229Q236 832 267 861T343 891Q372 891 392 880T430
858T466 847Q486 847 498 859T515 890H580Q573 838 543 808T465 777Z" />
<glyph unicode="&#xc4;" glyph-name="Adieresis" d="M-16 0L315 700H443L528 0H417L399 168H181L105 0H-16ZM354 550L220 253H390L359 550H354ZM498 768Q471 768 454 787T436 831Q436 857 453 875T498 894Q524 894 542 876T560 831Q560 806 542 787T498 768ZM308
768Q282 768 264 787T246 831Q246 857 264 875T308 894Q334 894 352 876T370 831Q370 806 352 787T308 768Z" />
<glyph unicode="&#xc5;" glyph-name="Aring" d="M-16 0L315 700H443L528 0H417L399 168H181L105 0H-16ZM354 550L220 253H390L359 550H354ZM409 756Q364 756 332 785T300 863Q300 913 332 942T409 971Q454 971 486 942T518 863Q518 814 486 785T409 756ZM409 807Q432
807 448 822T464 863Q464 889 448 904T409 920Q386 920 370 905T354 863Q354 837 370 822T409 807Z" />
<glyph unicode="&#xc6;" glyph-name="AE" d="M-44 0L289 700H674L657 605H469L433 401H591L574 307H417L379 95H567L550 0H256L286 168H151L75 0H-44ZM350 605L190 253H301L363 605H350Z" />
<glyph unicode="&#xc7;" glyph-name="Ccedilla" d="M267 -12Q155 -12 97 66T38 278Q38 360 60 437T126 577T235 675T384 712Q496 712 551 650T602 484H485Q486 539 457 575T365 612Q315 612 275 585T207 511T163 408T147 292Q147 195 181 142T282 88Q341 88 380
121T437 210H554Q524 105 453 47T267 -12ZM133 -261L144 -197H254Q281 -197 298 -186T315 -152Q315 -116 267 -116H261Q233 -116 222 -101T215 -62L227 7H296L288 -36Q284 -57 304 -57Q349 -57 373 -80T398 -142Q398 -200 357 -230T252 -261H133Z" />
<glyph unicode="&#xc8;" glyph-name="Egrave" d="M36 0L160 700H607L590 605H249L213 401H525L508 307H197L159 95H500L483 0H36ZM451 738L251 847L268 941L466 822L451 738Z" />
<glyph unicode="&#xc9;" glyph-name="Eacute" d="M36 0L160 700H607L590 605H249L213 401H525L508 307H197L159 95H500L483 0H36ZM327 738L344 833L581 941L563 837L327 738Z" />
<glyph unicode="&#xca;" glyph-name="Ecircumflex" d="M36 0L160 700H607L590 605H249L213 401H525L508 307H197L159 95H500L483 0H36ZM250 751L266 839L419 916L548 833L533 751L412 831H407L250 751Z" />
<glyph unicode="&#xcb;" glyph-name="Edieresis" d="M36 0L160 700H607L590 605H249L213 401H525L508 307H197L159 95H500L483 0H36ZM502 768Q475 768 458 787T440 831Q440 857 457 875T502 894Q528 894 546 876T564 831Q564 806 546 787T502 768ZM312 768Q286
768 268 787T250 831Q250 857 268 875T312 894Q338 894 356 876T374 831Q374 806 356 787T312 768Z" />
<glyph unicode="&#xcc;" glyph-name="Igrave" d="M51 0L67 94H220L310 606H160L177 700H583L566 606H416L326 94H478L461 0H51ZM447 738L247 847L264 941L462 822L447 738Z" />
<glyph unicode="&#xcd;" glyph-name="Iacute" d="M51 0L67 94H220L310 606H160L177 700H583L566 606H416L326 94H478L461 0H51ZM323 738L340 833L577 941L559 837L323 738Z" />
<glyph unicode="&#xce;" glyph-name="Icircumflex" d="M51 0L67 94H220L310 606H160L177 700H583L566 606H416L326 94H478L461 0H51ZM246 751L262 839L415 916L544 833L529 751L408 831H403L246 751Z" />
<glyph unicode="&#xcf;" glyph-name="Idieresis" d="M51 0L67 94H220L310 606H160L177 700H583L566 606H416L326 94H478L461 0H51ZM498 768Q471 768 454 787T436 831Q436 857 453 875T498 894Q524 894 542 876T560 831Q560 806 542 787T498 768ZM308 768Q282 768
264 787T246 831Q246 857 264 875T308 894Q334 894 352 876T370 831Q370 806 352 787T308 768Z" />
<glyph unicode="&#xd0;" glyph-name="Eth" d="M33 0L87 305H15L30 395H103L157 700H296Q387 700 450 663T546 557T579 394Q579 282 535 193T403 52T182 0H33ZM157 98H193Q285 98 346 135T439 236T470 383Q470 485 424 543T279 602H246L209 395H345L330 305H194L157 98Z" />
<glyph unicode="&#xd1;" glyph-name="Ntilde" d="M7 0L131 700H235L435 179L528 700H629L505 0H401L201 521L108 0H7ZM465 777Q435 777 415 788T377 810T342 821Q323 821 311 810T293 779H229Q236 832 267 861T343 891Q372 891 392 880T430 858T466 847Q486 847
498 859T515 890H580Q573 838 543 808T465 777Z" />
<glyph unicode="&#xd2;" glyph-name="Ograve" d="M262 -12Q153 -12 95 62T36 268Q36 354 58 434T124 576T231 675T374 712Q483 712 541 638T599 432Q599 345 577 266T511 124T405 25T262 -12ZM272 87Q325 87 366 116T434 193T476 299T490 414Q490 511 458 561T364
612Q311 612 270 583T201 506T159 400T145 285Q145 189 178 138T272 87ZM445 738L245 847L262 941L460 822L445 738Z" />
<glyph unicode="&#xd3;" glyph-name="Oacute" d="M262 -12Q153 -12 95 62T36 268Q36 354 58 434T124 576T231 675T374 712Q483 712 541 638T599 432Q599 345 577 266T511 124T405 25T262 -12ZM272 87Q325 87 366 116T434 193T476 299T490 414Q490 511 458 561T364
612Q311 612 270 583T201 506T159 400T145 285Q145 189 178 138T272 87ZM321 738L338 833L575 941L557 837L321 738Z" />
<glyph unicode="&#xd4;" glyph-name="Ocircumflex" d="M262 -12Q153 -12 95 62T36 268Q36 354 58 434T124 576T231 675T374 712Q483 712 541 638T599 432Q599 345 577 266T511 124T405 25T262 -12ZM272 87Q325 87 366 116T434 193T476 299T490 414Q490 511 458
561T364 612Q311 612 270 583T201 506T159 400T145 285Q145 189 178 138T272 87ZM244 751L260 839L413 916L542 833L527 751L406 831H401L244 751Z" />
<glyph unicode="&#xd5;" glyph-name="Otilde" d="M262 -12Q153 -12 95 62T36 268Q36 354 58 434T124 576T231 675T374 712Q483 712 541 638T599 432Q599 345 577 266T511 124T405 25T262 -12ZM272 87Q325 87 366 116T434 193T476 299T490 414Q490 511 458 561T364
612Q311 612 270 583T201 506T159 400T145 285Q145 189 178 138T272 87ZM463 777Q433 777 413 788T375 810T340 821Q321 821 309 810T291 779H227Q234 832 265 861T341 891Q370 891 390 880T428 858T464 847Q484 847 496 859T513 890H578Q571 838 541 808T463 777Z"
/>
<glyph unicode="&#xd6;" glyph-name="Odieresis" d="M262 -12Q153 -12 95 62T36 268Q36 354 58 434T124 576T231 675T374 712Q483 712 541 638T599 432Q599 345 577 266T511 124T405 25T262 -12ZM272 87Q325 87 366 116T434 193T476 299T490 414Q490 511 458 561T364
612Q311 612 270 583T201 506T159 400T145 285Q145 189 178 138T272 87ZM496 768Q469 768 452 787T434 831Q434 857 451 875T496 894Q522 894 540 876T558 831Q558 806 540 787T496 768ZM306 768Q280 768 262 787T244 831Q244 857 262 875T306 894Q332 894 350
876T368 831Q368 806 350 787T306 768Z" />
<glyph unicode="&#xd7;" glyph-name="multiply" d="M124 124L64 196L251 355L121 510L195 573L325 417L512 576L572 504L385 346L515 190L441 127L311 283L124 124Z" />
<glyph unicode="&#xd8;" glyph-name="Oslash" d="M-21 -20L71 99Q36 167 36 268Q36 354 58 434T124 576T231 675T374 712Q456 712 511 668L551 720H657L565 600Q599 533 599 432Q599 345 577 266T511 124T405 25T262 -12Q180 -12 126 31L86 -20H-21ZM145 285Q145
240 152 204L443 580Q412 612 364 612Q311 612 270 583T201 506T159 400T145 285ZM272 87Q325 87 366 116T434 193T476 299T490 414Q490 459 483 494L193 119Q224 87 272 87Z" />
<glyph unicode="&#xd9;" glyph-name="Ugrave" d="M261 -12Q191 -12 139 21T63 115T53 256L132 700H238L158 250Q145 170 176 127T271 83Q339 83 383 124T442 250L522 700H628L548 251Q523 109 447 49T261 -12ZM447 738L247 847L264 941L462 822L447 738Z" />
<glyph unicode="&#xda;" glyph-name="Uacute" d="M261 -12Q191 -12 139 21T63 115T53 256L132 700H238L158 250Q145 170 176 127T271 83Q339 83 383 124T442 250L522 700H628L548 251Q523 109 447 49T261 -12ZM323 738L340 833L577 941L559 837L323 738Z" />
<glyph unicode="&#xdb;" glyph-name="Ucircumflex" d="M261 -12Q191 -12 139 21T63 115T53 256L132 700H238L158 250Q145 170 176 127T271 83Q339 83 383 124T442 250L522 700H628L548 251Q523 109 447 49T261 -12ZM246 751L262 839L415 916L544 833L529 751L408
831H403L246 751Z" />
<glyph unicode="&#xdc;" glyph-name="Udieresis" d="M261 -12Q191 -12 139 21T63 115T53 256L132 700H238L158 250Q145 170 176 127T271 83Q339 83 383 124T442 250L522 700H628L548 251Q523 109 447 49T261 -12ZM498 768Q471 768 454 787T436 831Q436 857 453
875T498 894Q524 894 542 876T560 831Q560 806 542 787T498 768ZM308 768Q282 768 264 787T246 831Q246 857 264 875T308 894Q334 894 352 876T370 831Q370 806 352 787T308 768Z" />
<glyph unicode="&#xdd;" glyph-name="Yacute" d="M203 0L251 266L96 700H211L319 384L537 700H664L357 266L309 0H203ZM323 738L340 833L577 941L559 837L323 738Z" />
<glyph unicode="&#xde;" glyph-name="Thorn" d="M27 0L151 700H257L233 563H354Q458 563 511 509T565 369Q565 257 492 197T289 137H157L133 0H27ZM174 232H300Q373 232 414 266T455 364Q455 412 428 440T341 468H216L174 232Z" />
<glyph unicode="&#xdf;" glyph-name="germandbls" d="M-98 -220L-81 -127H-51Q-20 -127 -5 -114T15 -70L116 509Q126 567 155 615T233 691T354 720Q437 720 485 680T534 573Q534 536 520 512T486 471T444 441T409 415T395 384Q395 366 412 352T475 314Q516 293
541 260T566 179Q566 92 515 40T363 -12Q306 -12 268 12T212 77T201 172H303Q296 135 314 108T374 81Q414 81 436 103T459 163Q459 194 441 215T385 254Q338 276 310 304T282 373Q282 407 296 429T332 468T375 497T411 526T426 563Q426 592 403 608T344 625Q293
625 262 594T221 503L122 -65Q107 -148 67 -184T-64 -220H-98Z" />
<glyph unicode="&#xe0;" glyph-name="agrave" d="M222 -12Q169 -12 126 14T58 91T32 216Q32 273 49 325T100 418T184 484T300 508Q356 508 390 486T438 432L449 496H556L490 127Q484 92 519 92H561L544 0H451Q418 0 401 18T383 65V75H377Q356 35 319 12T222 -12ZM256
89Q308 89 343 116T395 186T413 279Q413 341 383 374T303 407Q252 407 216 382T161 315T142 226Q142 161 174 125T256 89ZM653 534L453 643L470 737L668 618L653 534Z" />
<glyph unicode="&#xe1;" glyph-name="aacute" d="M222 -12Q169 -12 126 14T58 91T32 216Q32 273 49 325T100 418T184 484T300 508Q356 508 390 486T438 432L449 496H556L490 127Q484 92 519 92H561L544 0H451Q418 0 401 18T383 65V75H377Q356 35 319 12T222 -12ZM256
89Q308 89 343 116T395 186T413 279Q413 341 383 374T303 407Q252 407 216 382T161 315T142 226Q142 161 174 125T256 89ZM273 534L290 629L527 737L509 633L273 534Z" />
<glyph unicode="&#xe2;" glyph-name="acircumflex" d="M222 -12Q169 -12 126 14T58 91T32 216Q32 273 49 325T100 418T184 484T300 508Q356 508 390 486T438 432L449 496H556L490 127Q484 92 519 92H561L544 0H451Q418 0 401 18T383 65V75H377Q356 35 319 12T222
-12ZM256 89Q308 89 343 116T395 186T413 279Q413 341 383 374T303 407Q252 407 216 382T161 315T142 226Q142 161 174 125T256 89ZM452 547L468 635L621 712L750 629L735 547L614 627H609L452 547Z" />
<glyph unicode="&#xe3;" glyph-name="atilde" d="M222 -12Q169 -12 126 14T58 91T32 216Q32 273 49 325T100 418T184 484T300 508Q356 508 390 486T438 432L449 496H556L490 127Q484 92 519 92H561L544 0H451Q418 0 401 18T383 65V75H377Q356 35 319 12T222 -12ZM256
89Q308 89 343 116T395 186T413 279Q413 341 383 374T303 407Q252 407 216 382T161 315T142 226Q142 161 174 125T256 89ZM671 573Q641 573 621 584T583 606T548 617Q529 617 517 606T499 575H435Q442 628 473 657T549 687Q578 687 598 676T636 654T672 643Q692
643 704 655T721 686H786Q779 634 749 604T671 573Z" />
<glyph unicode="&#xe4;" glyph-name="adieresis" d="M222 -12Q169 -12 126 14T58 91T32 216Q32 273 49 325T100 418T184 484T300 508Q356 508 390 486T438 432L449 496H556L490 127Q484 92 519 92H561L544 0H451Q418 0 401 18T383 65V75H377Q356 35 319 12T222
-12ZM256 89Q308 89 343 116T395 186T413 279Q413 341 383 374T303 407Q252 407 216 382T161 315T142 226Q142 161 174 125T256 89ZM704 564Q677 564 660 583T642 627Q642 653 659 671T704 690Q730 690 748 672T766 627Q766 602 748 583T704 564ZM514 564Q488 564
470 583T452 627Q452 653 470 671T514 690Q540 690 558 672T576 627Q576 602 558 583T514 564Z" />
<glyph unicode="&#xe5;" glyph-name="aring" d="M222 -12Q169 -12 126 14T58 91T32 216Q32 273 49 325T100 418T184 484T300 508Q356 508 390 486T438 432L449 496H556L490 127Q484 92 519 92H561L544 0H451Q418 0 401 18T383 65V75H377Q356 35 319 12T222 -12ZM256
89Q308 89 343 116T395 186T413 279Q413 341 383 374T303 407Q252 407 216 382T161 315T142 226Q142 161 174 125T256 89ZM615 552Q570 552 538 581T506 659Q506 709 538 738T615 767Q660 767 692 738T724 659Q724 610 692 581T615 552ZM615 603Q638 603 654 618T670
659Q670 685 654 700T615 716Q592 716 576 701T560 659Q560 633 576 618T615 603Z" />
<glyph unicode="&#xe6;" glyph-name="ae" d="M131 -12Q75 -12 43 39T10 179Q10 237 23 295T63 401T128 479T220 508Q276 508 300 462L306 496H398L391 459Q408 483 434 495T488 508Q544 508 569 469T595 365Q595 333 589 295T575 223H354Q348 190 348 164Q348
124 361 104T395 83Q419 83 433 102T458 156H553Q536 79 498 34T396 -12Q371 -12 349 -1T316 33L310 0H218L224 33Q205 10 183 -1T131 -12ZM370 304H494Q497 328 497 346Q497 382 486 399T455 416Q429 416 407 387T370 304ZM163 84Q188 84 207 105T241 162T262
237T270 314Q270 365 258 388T220 412Q195 412 175 392T141 338T120 264T112 186Q112 134 125 109T163 84Z" />
<glyph unicode="&#xe7;" glyph-name="ccedilla" d="M282 -12Q216 -12 167 16T90 96T63 218Q63 302 98 367T197 470T343 508Q438 508 491 460T550 330H439Q435 366 407 387T332 408Q284 408 248 383T192 317T171 225Q171 158 204 123T285 87Q332 87 362 108T409
166H521Q467 -12 282 -12ZM136 -261L147 -197H257Q284 -197 301 -186T318 -152Q318 -116 270 -116H264Q236 -116 225 -101T218 -62L230 7H299L291 -36Q287 -57 307 -57Q352 -57 376 -80T401 -142Q401 -200 360 -230T255 -261H136Z" />
<glyph unicode="&#xe8;" glyph-name="egrave" d="M274 -12Q208 -12 159 16T83 97T56 221Q56 300 91 365T191 469T343 508Q409 508 454 483T524 413T548 313Q548 291 544 268T534 223H160Q161 156 195 120T282 83Q328 83 358 102T404 156H511Q482 80 427 34T274
-12ZM330 416Q269 416 230 385T173 304H444V314Q444 363 414 389T330 416ZM670 534L470 643L487 737L685 618L670 534Z" />
<glyph unicode="&#xe9;" glyph-name="eacute" d="M274 -12Q208 -12 159 16T83 97T56 221Q56 300 91 365T191 469T343 508Q409 508 454 483T524 413T548 313Q548 291 544 268T534 223H160Q161 156 195 120T282 83Q328 83 358 102T404 156H511Q482 80 427 34T274
-12ZM330 416Q269 416 230 385T173 304H444V314Q444 363 414 389T330 416ZM290 534L307 629L544 737L526 633L290 534Z" />
<glyph unicode="&#xea;" glyph-name="ecircumflex" d="M274 -12Q208 -12 159 16T83 97T56 221Q56 300 91 365T191 469T343 508Q409 508 454 483T524 413T548 313Q548 291 544 268T534 223H160Q161 156 195 120T282 83Q328 83 358 102T404 156H511Q482 80 427 34T274
-12ZM330 416Q269 416 230 385T173 304H444V314Q444 363 414 389T330 416ZM213 547L229 635L382 712L511 629L496 547L375 627H370L213 547Z" />
<glyph unicode="&#xeb;" glyph-name="edieresis" d="M274 -12Q208 -12 159 16T83 97T56 221Q56 300 91 365T191 469T343 508Q409 508 454 483T524 413T548 313Q548 291 544 268T534 223H160Q161 156 195 120T282 83Q328 83 358 102T404 156H511Q482 80 427 34T274
-12ZM330 416Q269 416 230 385T173 304H444V314Q444 363 414 389T330 416ZM465 564Q438 564 421 583T403 627Q403 653 420 671T465 690Q491 690 509 672T527 627Q527 602 509 583T465 564ZM275 564Q249 564 231 583T213 627Q213 653 231 671T275 690Q301 690 319
672T337 627Q337 602 319 583T275 564Z" />
<glyph unicode="&#xec;" glyph-name="igrave" d="M321 0Q268 0 242 33T226 123L270 371Q276 404 244 404H124L140 496H279Q343 496 365 466T376 372L332 125Q327 92 359 92H500L484 0H321ZM667 534L467 643L484 737L682 618L667 534Z" />
<glyph unicode="&#xed;" glyph-name="iacute" d="M321 0Q268 0 242 33T226 123L270 371Q276 404 244 404H124L140 496H279Q343 496 365 466T376 372L332 125Q327 92 359 92H500L484 0H321ZM287 534L304 629L541 737L523 633L287 534Z" />
<glyph unicode="&#xee;" glyph-name="icircumflex" d="M321 0Q268 0 242 33T226 123L270 371Q276 404 244 404H124L140 496H279Q343 496 365 466T376 372L332 125Q327 92 359 92H500L484 0H321ZM466 547L482 635L635 712L764 629L749 547L628 627H623L466 547Z" />
<glyph unicode="&#xef;" glyph-name="idieresis" d="M321 0Q268 0 242 33T226 123L270 371Q276 404 244 404H124L140 496H279Q343 496 365 466T376 372L332 125Q327 92 359 92H500L484 0H321ZM462 564Q435 564 418 583T400 627Q400 653 417 671T462 690Q488 690
506 672T524 627Q524 602 506 583T462 564ZM272 564Q246 564 228 583T210 627Q210 653 228 671T272 690Q298 690 316 672T334 627Q334 602 316 583T272 564Z" />
<glyph unicode="&#xf0;" glyph-name="eth" d="M281 -12Q210 -12 159 17T80 98T52 217Q52 273 69 324T121 416T205 481T320 505Q370 505 412 487T478 431H485Q468 514 427 583L276 537L289 613L387 643Q356 682 314 720H436Q460 698 481 672L605 710L592 634L520
612Q549 560 564 497T580 356Q580 254 547 171T447 38T281 -12ZM287 88Q338 88 376 113T437 179T459 271Q459 333 423 369T331 405Q279 405 241 380T182 315T161 227Q161 163 196 126T287 88Z" />
<glyph unicode="&#xf1;" glyph-name="ntilde" d="M52 0L117 369Q123 404 89 404H47L63 496H153Q190 496 208 478T227 431V426H233Q257 464 297 486T394 508Q456 508 494 479T547 399T550 285L500 0H394L443 278Q454 337 430 373T350 410Q295 410 256 372T204 264L158
0H52ZM447 573Q417 573 397 584T359 606T324 617Q305 617 293 606T275 575H211Q218 628 249 657T325 687Q354 687 374 676T412 654T448 643Q468 643 480 655T497 686H562Q555 634 525 604T447 573Z" />
<glyph unicode="&#xf2;" glyph-name="ograve" d="M272 -12Q203 -12 153 17T75 98T48 219Q48 298 82 363T180 468T330 508Q398 508 447 479T524 398T552 277Q552 199 518 133T421 28T272 -12ZM277 89Q329 89 366 113T424 177T444 268Q444 336 410 371T323 407Q271
407 234 383T176 319T156 228Q156 158 190 124T277 89ZM666 534L466 643L483 737L681 618L666 534Z" />
<glyph unicode="&#xf3;" glyph-name="oacute" d="M272 -12Q203 -12 153 17T75 98T48 219Q48 298 82 363T180 468T330 508Q398 508 447 479T524 398T552 277Q552 199 518 133T421 28T272 -12ZM277 89Q329 89 366 113T424 177T444 268Q444 336 410 371T323 407Q271
407 234 383T176 319T156 228Q156 158 190 124T277 89ZM286 534L303 629L540 737L522 633L286 534Z" />
<glyph unicode="&#xf4;" glyph-name="ocircumflex" d="M272 -12Q203 -12 153 17T75 98T48 219Q48 298 82 363T180 468T330 508Q398 508 447 479T524 398T552 277Q552 199 518 133T421 28T272 -12ZM277 89Q329 89 366 113T424 177T444 268Q444 336 410 371T323
407Q271 407 234 383T176 319T156 228Q156 158 190 124T277 89ZM465 547L481 635L634 712L763 629L748 547L627 627H622L465 547Z" />
<glyph unicode="&#xf5;" glyph-name="otilde" d="M272 -12Q203 -12 153 17T75 98T48 219Q48 298 82 363T180 468T330 508Q398 508 447 479T524 398T552 277Q552 199 518 133T421 28T272 -12ZM277 89Q329 89 366 113T424 177T444 268Q444 336 410 371T323 407Q271
407 234 383T176 319T156 228Q156 158 190 124T277 89ZM428 573Q398 573 378 584T340 606T305 617Q286 617 274 606T256 575H192Q199 628 230 657T306 687Q335 687 355 676T393 654T429 643Q449 643 461 655T478 686H543Q536 634 506 604T428 573Z" />
<glyph unicode="&#xf6;" glyph-name="odieresis" d="M272 -12Q203 -12 153 17T75 98T48 219Q48 298 82 363T180 468T330 508Q398 508 447 479T524 398T552 277Q552 199 518 133T421 28T272 -12ZM277 89Q329 89 366 113T424 177T444 268Q444 336 410 371T323 407Q271
407 234 383T176 319T156 228Q156 158 190 124T277 89ZM717 564Q690 564 673 583T655 627Q655 653 672 671T717 690Q743 690 761 672T779 627Q779 602 761 583T717 564ZM527 564Q501 564 483 583T465 627Q465 653 483 671T527 690Q553 690 571 672T589 627Q589
602 571 583T527 564Z" />
<glyph unicode="&#xf7;" glyph-name="divide" d="M77 302L94 398H559L542 302H77ZM281 54Q244 54 218 78T192 138Q192 173 218 197T281 221Q319 221 344 197T370 138Q370 103 345 79T281 54ZM356 479Q319 479 293 503T267 563Q267 598 293 622T356 646Q394 646
419 622T445 563Q445 528 420 504T356 479Z" />
<glyph unicode="&#xf8;" glyph-name="oslash" d="M-6 -20L87 78Q48 136 48 219Q48 298 82 363T180 468T330 508Q407 508 462 469L507 516H606L512 418Q552 360 552 277Q552 199 518 133T421 28T272 -12Q193 -12 138 27L93 -20H-6ZM156 228Q156 190 167 161L387
390Q359 407 323 407Q271 407 234 383T176 319T156 228ZM277 89Q329 89 366 113T424 177T444 268Q444 306 432 335L213 105Q240 89 277 89Z" />
<glyph unicode="&#xf9;" glyph-name="ugrave" d="M200 -12Q143 -12 105 16T50 95T46 211L96 496H202L153 218Q143 157 166 123T244 88Q299 88 339 127T393 239L438 496H544L479 127Q472 92 507 92H549L533 0H441Q404 0 386 17T367 64V72H362Q336 32 297 10T200
-12ZM643 534L443 643L460 737L658 618L643 534Z" />
<glyph unicode="&#xfa;" glyph-name="uacute" d="M200 -12Q143 -12 105 16T50 95T46 211L96 496H202L153 218Q143 157 166 123T244 88Q299 88 339 127T393 239L438 496H544L479 127Q472 92 507 92H549L533 0H441Q404 0 386 17T367 64V72H362Q336 32 297 10T200
-12ZM263 534L280 629L517 737L499 633L263 534Z" />
<glyph unicode="&#xfb;" glyph-name="ucircumflex" d="M200 -12Q143 -12 105 16T50 95T46 211L96 496H202L153 218Q143 157 166 123T244 88Q299 88 339 127T393 239L438 496H544L479 127Q472 92 507 92H549L533 0H441Q404 0 386 17T367 64V72H362Q336 32 297 10T200
-12ZM442 547L458 635L611 712L740 629L725 547L604 627H599L442 547Z" />
<glyph unicode="&#xfc;" glyph-name="udieresis" d="M200 -12Q143 -12 105 16T50 95T46 211L96 496H202L153 218Q143 157 166 123T244 88Q299 88 339 127T393 239L438 496H544L479 127Q472 92 507 92H549L533 0H441Q404 0 386 17T367 64V72H362Q336 32 297 10T200
-12ZM694 564Q667 564 650 583T632 627Q632 653 649 671T694 690Q720 690 738 672T756 627Q756 602 738 583T694 564ZM504 564Q478 564 460 583T442 627Q442 653 460 671T504 690Q530 690 548 672T566 627Q566 602 548 583T504 564Z" />
<glyph unicode="&#xfd;" glyph-name="yacute" d="M201 41L67 496H176L283 120L416 318Q431 341 439 361T452 408L468 496H577L565 426Q557 380 543 345T503 270L174 -220H53L229 41H201ZM285 534L302 629L539 737L521 633L285 534Z" />
<glyph unicode="&#xfe;" glyph-name="thorn" d="M-3 -220L163 720H269L218 435Q241 466 279 487T369 508Q451 508 504 449T558 277Q558 221 542 169T492 76T411 12T297 -12Q241 -12 204 12T153 66L103 -220H-3ZM291 89Q342 89 377 115T430 183T448 272Q448 338
416 372T335 407Q283 407 248 381T196 312T178 220Q178 156 211 123T291 89Z" />
<glyph unicode="&#xff;" glyph-name="ydieresis" d="M201 41L67 496H176L283 120L416 318Q431 341 439 361T452 408L468 496H577L565 426Q557 380 543 345T503 270L174 -220H53L229 41H201ZM716 564Q689 564 672 583T654 627Q654 653 671 671T716 690Q742 690
760 672T778 627Q778 602 760 583T716 564ZM526 564Q500 564 482 583T464 627Q464 653 482 671T526 690Q552 690 570 672T588 627Q588 602 570 583T526 564Z" />
<glyph unicode="&#x2013;" glyph-name="endash" d="M97 305L114 395H539L522 305H97Z" />
<glyph unicode="&#x2014;" glyph-name="emdash" d="M10 305L26 395H626L610 305H10Z" />
<glyph unicode="&#x2018;" glyph-name="quoteleft" d="M210 405L366 700H466L355 405H210Z" />
<glyph unicode="&#x2019;" glyph-name="quoteright" d="M234 405L345 700H490L333 405H234Z" />
<glyph unicode="&#x201a;" glyph-name="quotesinglbase" d="M144 -153L255 142H400L243 -153H144Z" />
<glyph unicode="&#x201c;" glyph-name="quotedblleft" d="M354 405L510 700H610L499 405H354ZM332 405L488 700H588L477 405H332Z" />
<glyph unicode="&#x201d;" glyph-name="quotedblright" d="M362 405L473 700H618L461 405H362ZM340 405L451 700H596L439 405H340Z" />
<glyph unicode="&#x201e;" glyph-name="quotedblbase" d="M9 -153L120 142H265L108 -153H9ZM243 -153L354 142H499L342 -153H243Z" />
<glyph unicode="&#x2022;" glyph-name="bullet" d="M318 213Q280 213 249 231T200 281T181 350Q181 388 199 419T249 468T318 487Q356 487 387 469T436 419T455 350Q455 312 437 281T387 232T318 213Z" />
<glyph unicode="&#x2039;" glyph-name="guilsinglleft" d="M289 94L199 298L349 496H464L314 295L313 289L393 94H289Z" />
<glyph unicode="&#x203a;" glyph-name="guilsinglright" d="M153 94L302 295L304 301L223 496H328L417 292L270 94H153Z" />
</font>
</defs>
</svg>
