<svg width="109" height="13" viewBox="0 0 109 13" fill="none" xmlns="http://www.w3.org/2000/svg">
    <g clip-path="url(#clip0_531_95)">
        <path d="M0 11C2.49843 11 4.52381 8.75 4.52381 8.75L9.04762 4.25C9.04762 4.25 11.073 2 13.5714 2C16.0699 2 18.0952 4.25 18.0952 4.25L22.619 8.75C22.619 8.75 24.6444 11 27.1429 11C29.6413 11 31.6667 8.75 31.6667 8.75L36.1905 4.25C36.1905 4.25 38.2159 2 40.7143 2C43.2127 2 45.2381 4.25 45.2381 4.25L49.7619 8.75C49.7619 8.75 51.7873 11 54.2857 11C56.7841 11 58.8095 8.75 58.8095 8.75L63.3333 4.25C63.3333 4.25 65.3587 2 67.8571 2C70.3556 2 72.381 4.25 72.381 4.25L76.9048 8.75C76.9048 8.75 78.9301 11 81.4286 11C83.927 11 85.9524 8.75 85.9524 8.75L90.4762 4.25C90.4762 4.25 92.5016 2 95 2" stroke="#3C404D" stroke-width="3" stroke-linecap="round" stroke-linejoin="round"/>
        <path d="M54 11C56.4984 11 58.5238 8.75 58.5238 8.75L63.0476 4.25C63.0476 4.25 65.073 2 67.5714 2C70.0699 2 72.0952 4.25 72.0952 4.25L76.619 8.75C76.619 8.75 78.6444 11 81.1429 11C83.6413 11 85.6667 8.75 85.6667 8.75L90.1905 4.25C90.1905 4.25 92.2159 2 94.7143 2C97.2127 2 99.2381 4.25 99.2381 4.25L103.762 8.75C103.762 8.75 105.787 11 108.286 11C110.784 11 112.81 8.75 112.81 8.75L117.333 4.25C117.333 4.25 119.359 2 121.857 2C124.356 2 126.381 4.25 126.381 4.25L130.905 8.75C130.905 8.75 132.93 11 135.429 11C137.927 11 139.952 8.75 139.952 8.75L144.476 4.25C144.476 4.25 146.502 2 149 2" stroke="#3C404D" stroke-width="3" stroke-linecap="round" stroke-linejoin="round"/>
    </g>
    <defs>
        <clipPath id="clip0_531_95">
            <rect width="108.29" height="13" fill="white"/>
        </clipPath>
    </defs>
</svg>
